<?xml version="1.0" standalone="no"?>
<svg xmlns:xlink="http://www.w3.org/1999/xlink" id="wave" style="transform:rotate(0deg); transition: 0.3s" viewBox="0 0 1440 130" version="1.1" xmlns="http://www.w3.org/2000/svg"><defs><linearGradient id="sw-gradient-0" x1="0" x2="0" y1="1" y2="0"><stop stop-color="rgba(33.648, 182.513, 171.922, 1)" offset="0%"/><stop stop-color="rgba(19.053, 230.325, 229.61, 1)" offset="100%"/></linearGradient></defs><path style="transform:translate(0, 0px); opacity:1" fill="url(#sw-gradient-0)" d="M0,26L34.3,23.8C68.6,22,137,17,206,32.5C274.3,48,343,82,411,91C480,100,549,82,617,78C685.7,74,754,82,823,91C891.4,100,960,108,1029,95.3C1097.1,82,1166,48,1234,30.3C1302.9,13,1371,13,1440,30.3C1508.6,48,1577,82,1646,95.3C1714.3,108,1783,100,1851,95.3C1920,91,1989,91,2057,84.5C2125.7,78,2194,65,2263,58.5C2331.4,52,2400,52,2469,56.3C2537.1,61,2606,69,2674,67.2C2742.9,65,2811,52,2880,47.7C2948.6,43,3017,48,3086,54.2C3154.3,61,3223,69,3291,60.7C3360,52,3429,26,3497,32.5C3565.7,39,3634,78,3703,91C3771.4,104,3840,91,3909,80.2C3977.1,69,4046,61,4114,60.7C4182.9,61,4251,69,4320,60.7C4388.6,52,4457,26,4526,19.5C4594.3,13,4663,26,4731,30.3C4800,35,4869,30,4903,28.2L4937.1,26L4937.1,130L4902.9,130C4868.6,130,4800,130,4731,130C4662.9,130,4594,130,4526,130C4457.1,130,4389,130,4320,130C4251.4,130,4183,130,4114,130C4045.7,130,3977,130,3909,130C3840,130,3771,130,3703,130C3634.3,130,3566,130,3497,130C3428.6,130,3360,130,3291,130C3222.9,130,3154,130,3086,130C3017.1,130,2949,130,2880,130C2811.4,130,2743,130,2674,130C2605.7,130,2537,130,2469,130C2400,130,2331,130,2263,130C2194.3,130,2126,130,2057,130C1988.6,130,1920,130,1851,130C1782.9,130,1714,130,1646,130C1577.1,130,1509,130,1440,130C1371.4,130,1303,130,1234,130C1165.7,130,1097,130,1029,130C960,130,891,130,823,130C754.3,130,686,130,617,130C548.6,130,480,130,411,130C342.9,130,274,130,206,130C137.1,130,69,130,34,130L0,130Z"/><defs><linearGradient id="sw-gradient-1" x1="0" x2="0" y1="1" y2="0"><stop stop-color="rgba(30.608, 130.147, 123.065, 1)" offset="0%"/><stop stop-color="rgba(67.17, 242.91, 255, 1)" offset="100%"/></linearGradient></defs><path style="transform:translate(0, 50px); opacity:0.9" fill="url(#sw-gradient-1)" d="M0,117L34.3,106.2C68.6,95,137,74,206,54.2C274.3,35,343,17,411,21.7C480,26,549,52,617,60.7C685.7,69,754,61,823,65C891.4,69,960,87,1029,88.8C1097.1,91,1166,78,1234,80.2C1302.9,82,1371,100,1440,95.3C1508.6,91,1577,65,1646,45.5C1714.3,26,1783,13,1851,21.7C1920,30,1989,61,2057,67.2C2125.7,74,2194,56,2263,54.2C2331.4,52,2400,65,2469,69.3C2537.1,74,2606,69,2674,73.7C2742.9,78,2811,91,2880,99.7C2948.6,108,3017,113,3086,104C3154.3,95,3223,74,3291,73.7C3360,74,3429,95,3497,91C3565.7,87,3634,56,3703,49.8C3771.4,43,3840,61,3909,60.7C3977.1,61,4046,43,4114,49.8C4182.9,56,4251,87,4320,97.5C4388.6,108,4457,100,4526,88.8C4594.3,78,4663,65,4731,67.2C4800,69,4869,87,4903,95.3L4937.1,104L4937.1,130L4902.9,130C4868.6,130,4800,130,4731,130C4662.9,130,4594,130,4526,130C4457.1,130,4389,130,4320,130C4251.4,130,4183,130,4114,130C4045.7,130,3977,130,3909,130C3840,130,3771,130,3703,130C3634.3,130,3566,130,3497,130C3428.6,130,3360,130,3291,130C3222.9,130,3154,130,3086,130C3017.1,130,2949,130,2880,130C2811.4,130,2743,130,2674,130C2605.7,130,2537,130,2469,130C2400,130,2331,130,2263,130C2194.3,130,2126,130,2057,130C1988.6,130,1920,130,1851,130C1782.9,130,1714,130,1646,130C1577.1,130,1509,130,1440,130C1371.4,130,1303,130,1234,130C1165.7,130,1097,130,1029,130C960,130,891,130,823,130C754.3,130,686,130,617,130C548.6,130,480,130,411,130C342.9,130,274,130,206,130C137.1,130,69,130,34,130L0,130Z"/></svg>